<svg aria-hidden="true" style="position: absolute; width: 0; height: 0; overflow: hidden;" version="1.1" xmlns="http://www.w3.org/2000/svg" xmlns:xlink="http://www.w3.org/1999/xlink">
<defs>
<symbol id="icon-arrow" viewBox="0 0 48 32">
<path d="M47.492 5.926c0.298 0.298 0.446 0.64 0.446 1.027s-0.149 0.729-0.446 1.027l-20.804 20.804c-0.298 0.298-0.64 0.446-1.027 0.446s-0.729-0.149-1.027-0.446l-20.804-20.804c-0.298-0.298-0.446-0.64-0.446-1.027s0.149-0.729 0.446-1.027l2.232-2.232c0.298-0.298 0.64-0.446 1.027-0.446s0.729 0.149 1.027 0.446l17.545 17.545 17.545-17.545c0.298-0.298 0.64-0.446 1.027-0.446s0.729 0.149 1.027 0.446l2.232 2.232z"></path>
</symbol>
<symbol id="icon-location" viewBox="0 0 21 32">
<path d="M14.694 10.286c0 2.698-2.2 4.898-4.898 4.898s-4.898-2.2-4.898-4.898c0-2.698 2.2-4.898 4.898-4.898s4.898 2.2 4.898 4.898zM19.592 10.286c0-5.415-4.381-9.796-9.796-9.796s-9.796 4.381-9.796 9.796c0 1.167 0.134 2.372 0.631 3.425l6.983 14.809c0.383 0.842 1.263 1.358 2.181 1.358s1.798-0.517 2.2-1.358l6.964-14.809c0.497-1.052 0.631-2.258 0.631-3.425z"></path>
</symbol>
<symbol id="icon-zoom" viewBox="0 0 32 32">
<path d="M13 24c1.445 0 2.875-0.285 4.209-0.837s2.547-1.363 3.569-2.384c1.021-1.021 1.832-2.234 2.384-3.569s0.837-2.765 0.837-4.21-0.285-2.875-0.837-4.21c-0.553-1.335-1.363-2.547-2.384-3.569s-2.234-1.832-3.569-2.384-2.765-0.837-4.21-0.837c-2.917 0-5.715 1.159-7.778 3.222s-3.222 4.861-3.222 7.778c0 2.917 1.159 5.715 3.222 7.778s4.861 3.222 7.778 3.222zM26 13c0 3.448-1.37 6.754-3.808 9.192s-5.745 3.808-9.192 3.808-6.754-1.37-9.192-3.808c-2.438-2.438-3.808-5.745-3.808-9.192s1.37-6.754 3.808-9.192c2.438-2.438 5.745-3.808 9.192-3.808s6.754 1.37 9.192 3.808c2.438 2.438 3.808 5.745 3.808 9.192z"></path>
<path d="M20.688 23.484c0.060 0.080 0.124 0.156 0.196 0.23l7.7 7.7c0.375 0.375 0.884 0.586 1.414 0.586s1.039-0.21 1.415-0.585c0.375-0.375 0.586-0.884 0.586-1.414s-0.21-1.039-0.585-1.415l-7.7-7.7c-0.072-0.072-0.148-0.139-0.23-0.2-0.785 1.070-1.727 2.014-2.796 2.8v-0.002z"></path>
<path d="M13 6c0.265 0 0.52 0.105 0.707 0.293s0.293 0.442 0.293 0.707v5h5c0.265 0 0.52 0.105 0.707 0.293s0.293 0.442 0.293 0.707c0 0.265-0.105 0.52-0.293 0.707s-0.442 0.293-0.707 0.293h-5v5c0 0.265-0.105 0.52-0.293 0.707s-0.442 0.293-0.707 0.293c-0.265 0-0.52-0.105-0.707-0.293s-0.293-0.442-0.293-0.707v-5h-5c-0.265 0-0.52-0.105-0.707-0.293s-0.293-0.442-0.293-0.707c0-0.265 0.105-0.52 0.293-0.707s0.442-0.293 0.707-0.293h5v-5c0-0.265 0.105-0.52 0.293-0.707s0.442-0.293 0.707-0.293z"></path>
</symbol>
<symbol id="icon-twitter" viewBox="0 0 37 32">
<path d="M32.786 8.571c0.048 0.19 0.071 0.5 0.071 0.929 0 2.524-0.476 5.048-1.429 7.571-0.952 2.476-2.309 4.762-4.071 6.857-1.714 2.048-3.952 3.714-6.714 5s-5.81 1.929-9.143 1.929c-4.19 0-8.024-1.119-11.5-3.357 0.524 0.048 1.119 0.072 1.786 0.072 3.476 0 6.595-1.071 9.357-3.214-1.667 0-3.143-0.476-4.429-1.429-1.238-1-2.095-2.238-2.571-3.714 0.476 0.048 0.929 0.071 1.357 0.071 0.667 0 1.333-0.071 2-0.214-1.143-0.238-2.167-0.714-3.071-1.429s-1.619-1.571-2.143-2.571c-0.524-1.048-0.786-2.167-0.786-3.357v-0.143c1.048 0.619 2.167 0.952 3.357 1-2.238-1.524-3.357-3.619-3.357-6.286 0-1.333 0.357-2.595 1.071-3.786 1.857 2.333 4.119 4.19 6.786 5.571 2.714 1.381 5.595 2.143 8.643 2.286-0.095-0.571-0.143-1.143-0.143-1.714 0-2.048 0.714-3.81 2.143-5.286 1.476-1.476 3.238-2.214 5.286-2.214 2.19 0 4.024 0.786 5.5 2.357 1.714-0.333 3.309-0.929 4.786-1.786-0.571 1.762-1.667 3.143-3.286 4.143 1.429-0.19 2.857-0.595 4.286-1.214-1.048 1.524-2.309 2.833-3.786 3.929z"></path>
</symbol>
<symbol id="icon-instagram" viewBox="0 0 34 32">
<path d="M10.214 10.214c1.619-1.619 3.571-2.429 5.857-2.429s4.214 0.81 5.786 2.429c1.619 1.571 2.429 3.5 2.429 5.786s-0.81 4.238-2.429 5.857c-1.571 1.571-3.5 2.357-5.786 2.357s-4.238-0.786-5.857-2.357c-1.571-1.619-2.357-3.571-2.357-5.857s0.786-4.214 2.357-5.786zM12.286 19.786c1.048 1.048 2.31 1.571 3.786 1.571s2.738-0.524 3.786-1.571c1.048-1.048 1.571-2.31 1.571-3.786s-0.524-2.738-1.571-3.786c-1.048-1.048-2.31-1.571-3.786-1.571s-2.738 0.524-3.786 1.571c-1.048 1.048-1.571 2.31-1.571 3.786s0.524 2.738 1.571 3.786zM25.929 6.143c0.381 0.333 0.571 0.762 0.571 1.286s-0.191 0.976-0.571 1.357c-0.334 0.381-0.762 0.571-1.286 0.571s-0.976-0.19-1.357-0.571-0.571-0.833-0.571-1.357c0-0.524 0.19-0.952 0.571-1.286 0.381-0.381 0.833-0.571 1.357-0.571s0.952 0.19 1.286 0.571zM32 9.429c0.048 1.286 0.071 3.476 0.071 6.571s-0.024 5.286-0.071 6.571c-0.143 2.905-1.024 5.167-2.643 6.786-1.572 1.571-3.81 2.405-6.714 2.5-1.286 0.095-3.476 0.143-6.571 0.143s-5.286-0.048-6.571-0.143c-2.905-0.143-5.143-1-6.714-2.571-0.619-0.571-1.119-1.238-1.5-2s-0.667-1.5-0.857-2.214c-0.143-0.715-0.214-1.548-0.214-2.5-0.095-1.286-0.143-3.476-0.143-6.571s0.048-5.31 0.143-6.643c0.143-2.857 1-5.071 2.571-6.643 1.571-1.619 3.81-2.5 6.714-2.643 1.286-0.048 3.476-0.071 6.571-0.071s5.286 0.024 6.571 0.071c2.905 0.143 5.143 1.024 6.714 2.643 1.619 1.571 2.5 3.81 2.643 6.714zM28.571 25.429c0.143-0.381 0.262-0.857 0.357-1.429 0.095-0.619 0.167-1.333 0.214-2.143 0.048-0.857 0.071-1.548 0.071-2.071s0-1.262 0-2.214c0-0.952 0-1.476 0-1.571 0-0.143 0-0.667 0-1.571 0-0.952 0-1.69 0-2.214s-0.024-1.19-0.071-2c-0.048-0.857-0.119-1.571-0.214-2.143-0.095-0.619-0.214-1.119-0.357-1.5-0.571-1.476-1.595-2.5-3.072-3.071-0.381-0.143-0.881-0.262-1.5-0.357-0.571-0.095-1.286-0.167-2.143-0.214-0.81-0.048-1.476-0.071-2-0.071-0.476 0-1.214 0-2.214 0-0.952 0-1.476 0-1.571 0s-0.619 0-1.571 0c-0.952 0-1.69 0-2.214 0s-1.214 0.024-2.071 0.071c-0.81 0.048-1.524 0.119-2.143 0.214-0.571 0.095-1.048 0.214-1.429 0.357-1.476 0.571-2.5 1.595-3.071 3.071-0.143 0.381-0.262 0.881-0.357 1.5-0.095 0.571-0.167 1.286-0.214 2.143-0.048 0.81-0.071 1.476-0.071 2 0 0.476 0 1.214 0 2.214 0 0.952 0 1.476 0 1.571 0 0.19 0 0.643 0 1.357 0 0.667 0 1.238 0 1.714 0 0.429 0 1 0 1.714 0.048 0.714 0.095 1.333 0.143 1.857 0.048 0.476 0.119 0.976 0.214 1.5s0.19 0.952 0.286 1.286c0.619 1.476 1.643 2.5 3.071 3.072 0.381 0.143 0.857 0.262 1.429 0.357 0.619 0.095 1.333 0.167 2.143 0.214 0.857 0.048 1.524 0.071 2 0.071 0.524 0 1.262 0 2.214 0 1 0 1.548 0 1.643 0 0.143 0 0.667 0 1.571 0 0.952 0 1.69 0 2.214 0s1.19-0.024 2-0.071c0.857-0.048 1.571-0.119 2.143-0.214 0.619-0.095 1.119-0.214 1.5-0.357 1.476-0.619 2.5-1.643 3.072-3.072z"></path>
</symbol>
<symbol id="icon-facebook" viewBox="0 0 20 32">
<path d="M17.438 18h-4.688v14h-6.25v-14h-5.063v-5.813h5.063v-4.375c0-1.667 0.313-3.083 0.938-4.25s1.5-2.042 2.625-2.625c1.167-0.625 2.5-0.938 4-0.938 0.667 0 1.375 0.042 2.125 0.125 0.75 0.042 1.333 0.104 1.75 0.188l0.625 0.063v4.938h-2.5c-1.167 0-2.021 0.313-2.563 0.938-0.5 0.583-0.75 1.313-0.75 2.188v3.75h5.563l-0.875 5.813z"></path>
</symbol>
<symbol id="icon-clock" viewBox="0 0 18 18">
<path d="M9 1c-4.418 0-8 3.582-8 8s3.582 8 8 8 8-3.582 8-8-3.582-8-8-8zM9 15c-3.309 0-6-2.692-6-6s2.691-6 6-6 6 2.692 6 6-2.691 6-6 6z"></path>
<path d="M11.010 9h-1.51c-0.276 0-0.5-0.224-0.5-0.5v-1.51c0-0.547-0.443-0.99-0.99-0.99h-0.020c-0.547 0-0.99 0.443-0.99 0.99v3.020c0 0.547 0.443 0.99 0.99 0.99h3.020c0.547 0 0.99-0.443 0.99-0.99v-0.020c0-0.547-0.443-0.99-0.99-0.99z"></path>
</symbol>
<symbol id="icon-phone" viewBox="0 0 32 32">
<path d="M22 20c-2 2-2 4-4 4s-4-2-6-4-4-4-4-6 2-2 4-4-4-8-6-8-6 6-6 6c0 4 4.109 12.109 8 16s12 8 16 8c0 0 6-4 6-6s-6-8-8-6z"></path>
</symbol>
<symbol id="icon-email" viewBox="0 0 32 32">
<path d="M31.781 20.375l-8-10c-0.19-0.237-0.477-0.375-0.781-0.375h-14c-0.304 0-0.591 0.138-0.781 0.375l-8 10c-0.142 0.177-0.219 0.398-0.219 0.625v9c0 1.105 0.895 2 2 2h28c1.105 0 2-0.895 2-2v-9c0-0.227-0.077-0.447-0.219-0.625zM30 22h-7l-4 4h-6l-4-4h-7v-0.649l7.481-9.351h13.039l7.481 9.351v0.649z"></path>
</symbol>
</defs>
</svg>
